<svg xmlns="http://www.w3.org/2000/svg" width="24.906" height="25" viewBox="0 0 24.906 25">
  <g id="Group_62" data-name="Group 62" transform="translate(-10.453 -10.303)">
    <path id="Path_533" data-name="Path 533" d="M17.766,10.3A6.721,6.721,0,0,0,12.3,12.713c-1.832,2.2-2.419,5.767-1.207,9.635L19.735,13.2a.724.724,0,0,1,1.022.022l3.274,3.618h3.416c-1.632-1.791-3.294-3.6-4.938-5.395A12.385,12.385,0,0,0,17.766,10.3Z" fill="#08090a" fill-rule="evenodd"/>
    <path id="Path_534" data-name="Path 534" d="M30.4,10.341a11.5,11.5,0,0,0-4.079.817l4.3,4.676a3.4,3.4,0,0,1,.5.676,1.237,1.237,0,0,1,.174.872,1.117,1.117,0,0,1-.642.741,2.136,2.136,0,0,1-.816.142H25.954a.706.706,0,0,1-.522-.229l-2.969-3.291L13.881,23.8c-.192.2-.254.424-.054.621l.9.894c.266.244.416.111.609-.077l5.939-6.049a.7.7,0,0,1,.489-.207.7.7,0,0,1,.5,1.188c-2.131,2.241-4.406,4.41-6.515,6.648-.212.251-.164.417,0,.578l.9.9a.371.371,0,0,0,.522,0l6.363-6.627a.7.7,0,0,1,.489-.229.7.7,0,0,1,.511,1.188c-2.151,2.227-4.288,4.5-6.439,6.714-.126.133.018.3.13.4.38.355.757.741,1.131,1.112a.373.373,0,0,0,.533.054,23.829,23.829,0,0,1,1.849-2.005,1.715,1.715,0,0,1,1.012-.48,1.8,1.8,0,0,1,.489-1.014c.3-.312.619-.634.892-.894a1.731,1.731,0,0,1,1-.48,1.75,1.75,0,0,1,.49-1.014c.294-.291.6-.589.881-.883a1.773,1.773,0,0,1,1.011-.48,1.694,1.694,0,0,1,.489-1l.881-.883a1.731,1.731,0,0,1,2.48.022l3.981,4.12c2.742-4.594,2.8-9.272,1.055-12.24a6.5,6.5,0,0,0-4.144-3.117A10.273,10.273,0,0,0,30.4,10.341Z" transform="translate(-2.227 -0.026)" fill="#08090a" fill-rule="evenodd"/>
    <path id="Path_535" data-name="Path 535" d="M63.116,49.489a.36.36,0,0,0-.25.109l-.881.883c-.225.225-.1.418.087.621,1.494,1.536,3,3.117,4.285,4.425a.337.337,0,0,0,.5-.011l.859-.861a.379.379,0,0,0,.011-.534L63.366,49.6a.371.371,0,0,0-.25-.109Z" transform="translate(-35.224 -26.847)" fill="#08090a" fill-rule="evenodd"/>
    <path id="Path_536" data-name="Path 536" d="M55.573,57.035a.347.347,0,0,0-.25.109l-.87.872c-.221.238-.1.426.076.621,1.445,1.454,2.842,2.979,4.285,4.425a.337.337,0,0,0,.5,0l.87-.872a.379.379,0,0,0,.011-.523l-4.372-4.523a.368.368,0,0,0-.25-.109Z" transform="translate(-30.062 -32.017)" fill="#08090a" fill-rule="evenodd"/>
    <path id="Path_537" data-name="Path 537" d="M48,64.58a.375.375,0,0,0-.261.109l-.859.861c-.234.247-.149.42.077.654,1.33,1.376,2.677,2.744,4,4.12a.33.33,0,0,0,.5,0l.87-.872a.393.393,0,0,0,.011-.534c-1.346-1.39-2.7-2.791-4.046-4.185A.436.436,0,0,0,48,64.58Z" transform="translate(-24.862 -37.186)" fill="#08090a" fill-rule="evenodd"/>
    <path id="Path_538" data-name="Path 538" d="M40.492,72.091a.359.359,0,0,0-.25.12c-.305.3-.621.611-.914.916a.393.393,0,0,0,.033.49l3.785,3.9a.314.314,0,0,0,.478.011l.892-.883a.38.38,0,0,0,.011-.523c-1.231-1.271-2.466-2.551-3.7-3.826a.575.575,0,0,0-.337-.207Z" transform="translate(-19.735 -42.332)" fill="#08090a" fill-rule="evenodd"/>
  </g>
</svg>
