<svg id="Group_140" data-name="Group 140" xmlns="http://www.w3.org/2000/svg" width="118.505" height="101.277" viewBox="0 0 118.505 101.277">
  <g id="Group_131" data-name="Group 131" transform="translate(0 0)">
    <g id="Group_131-2" data-name="Group 131" transform="translate(0 65.048)">
      <path id="Path_603" data-name="Path 603" d="M326.561,49.934c-.225.924-.385,1.869-.685,2.768a9.814,9.814,0,0,1-6.371,6.17,16.633,16.633,0,0,1-6.041.809,16.056,16.056,0,0,1-8.339-2.094A8.212,8.212,0,0,1,301,52.106a4.607,4.607,0,0,1,2.1-4.759,4.479,4.479,0,0,1,5.06.817,23.925,23.925,0,0,1,2.319,3.078,4.6,4.6,0,0,0,2.99,2.252,3.175,3.175,0,0,0,3.5-2.7,3.8,3.8,0,0,0-1.834-3.89c-2.355-1.478-4.9-2.574-7.363-3.83s-4.6-2.965-5.537-5.668c-1.814-5.217.088-11.212,6.464-13.111a16.944,16.944,0,0,1,12.821.942,6.666,6.666,0,0,1,3.8,4.688,3.934,3.934,0,0,1-5.7,4.594,5.465,5.465,0,0,1-2.012-2.215,28.562,28.562,0,0,0-1.648-2.382,3.016,3.016,0,0,0-3.143-.981,2.652,2.652,0,0,0-2.052,2.3c-.457,1.925.464,3.279,1.964,4.323a33.217,33.217,0,0,0,4.78,2.358,20.613,20.613,0,0,1,5.871,3.545,9.664,9.664,0,0,1,3.067,6.072c.008.089.022.167.125.192Z" transform="translate(-208.056 -23.471)" fill="#08090a"/>
      <path id="Path_604" data-name="Path 604" d="M161.7,42.23c0,3.318.014,6.634-.007,9.951a6.017,6.017,0,0,1-1.134,4.064,7.545,7.545,0,0,1-3.328,2.132,26.714,26.714,0,0,1-9.782,1.362,23.2,23.2,0,0,1-7.084-1.223,8.775,8.775,0,0,1-5.961-9.2c.319-4.1,2.7-6.587,6.109-8.365a36.331,36.331,0,0,1,8.425-2.73c.855-.207,1.708-.422,2.566-.614.2-.046.36-.056.35-.333a43.745,43.745,0,0,0-.138-5.353,2.813,2.813,0,0,0-2.147-2.658,3.482,3.482,0,0,0-3.684,1.253A5.843,5.843,0,0,0,145,32.159a12.535,12.535,0,0,1-1.154,2.294A3.483,3.483,0,0,1,140.705,36a4.2,4.2,0,0,1-4.68-4.68,6.017,6.017,0,0,1,1.785-3.688,12.683,12.683,0,0,1,5.9-3.147,24.145,24.145,0,0,1,11.573-.33,7.6,7.6,0,0,1,6.349,7.419c.185,2.881.037,5.771.064,8.657C161.7,40.895,161.7,41.563,161.7,42.23Zm-9.849,4.81c0-1.652-.012-3.03.007-4.409.006-.42-.058-.586-.524-.406-.8.309-1.624.544-2.42.855a7.521,7.521,0,0,0-2.976,1.977,6.4,6.4,0,0,0-1.353,5.193,4.169,4.169,0,0,0,2.581,3.633c1.828.827,4.308.3,4.6-2.408C151.932,49.9,151.774,48.334,151.847,47.039Z" transform="translate(-134.37 -23.529)" fill="#08090a"/>
      <path id="Path_605" data-name="Path 605" d="M270.7,42.369c0,3.489-.01,6.977,0,10.466a5.309,5.309,0,0,1-3.522,5.194,23.27,23.27,0,0,1-9.12,1.755,24.688,24.688,0,0,1-9.007-1.355,8.7,8.7,0,0,1-5.591-7.521c-.294-4.67,1.953-7.733,5.916-9.824a34.784,34.784,0,0,1,8.027-2.692q1.561-.387,3.13-.745c.211-.048.368-.085.36-.345a41.656,41.656,0,0,0-.169-5.477A2.7,2.7,0,0,0,258.6,29.3a3.458,3.458,0,0,0-3.639,1.208,7.512,7.512,0,0,0-1.06,2.046,13.77,13.77,0,0,1-1,1.935c-.771,1.315-2.061,1.546-3.4,1.546a4.11,4.11,0,0,1-4.413-3.586,5.721,5.721,0,0,1,2.152-5.139,14.763,14.763,0,0,1,7.452-3.243,27.679,27.679,0,0,1,9.07-.031,7.914,7.914,0,0,1,6.932,7.808c.033,3.51.007,7.02.007,10.53Zm-9.844,4.621h.034c0-1.462-.019-2.924.011-4.386.01-.467-.122-.5-.508-.352-.862.323-1.746.588-2.6.924a7.544,7.544,0,0,0-2.445,1.522c-1.746,1.645-1.967,3.725-1.668,5.938a3.95,3.95,0,0,0,1.928,2.965,3.671,3.671,0,0,0,3.679.349,3.008,3.008,0,0,0,1.567-2.961C260.877,49.656,260.857,48.323,260.857,46.99Z" transform="translate(-182.626 -23.561)" fill="#08090a"/>
      <path id="Path_606" data-name="Path 606" d="M204.48,59.7a15.947,15.947,0,0,1-8.411-2.11,8.22,8.22,0,0,1-4.082-5.371A4.407,4.407,0,0,1,195,47.011a4.807,4.807,0,0,1,5,2.163,21.978,21.978,0,0,0,2.508,3.338A3.156,3.156,0,0,0,207.97,50.4a3.624,3.624,0,0,0-1.629-3.3,59.8,59.8,0,0,0-7.051-3.725,11.805,11.805,0,0,1-5.781-5.2,9.862,9.862,0,0,1-.749-6.283c.691-4.079,3.282-6.515,7.064-7.619a17.658,17.658,0,0,1,11.291.364c2.407.9,4.334,2.354,5.092,4.973a4.22,4.22,0,0,1-1.686,4.914,4.145,4.145,0,0,1-5.106-1.013c-.838-1.041-1.465-2.219-2.268-3.285a3.185,3.185,0,0,0-3.216-1.314,2.979,2.979,0,0,0-2.3,2.817c-.164,2.111,1.029,3.4,2.72,4.273,1.96,1.016,3.992,1.9,5.99,2.839,2.822,1.333,5.21,3.159,6.406,6.139,1.691,4.218.854,11.358-6.181,13.888A17.4,17.4,0,0,1,204.48,59.7Z" transform="translate(-159.816 -23.491)" fill="#08090a"/>
    </g>
    <g id="Group_132" data-name="Group 132" transform="translate(22.974)">
      <path id="Path_607" data-name="Path 607" d="M244.134-93.193a5.726,5.726,0,0,1,2.327,3.422,30.462,30.462,0,0,1,1.434,7.3,29.663,29.663,0,0,1,.129,6.055,17.388,17.388,0,0,1-1.817,6.721,2.459,2.459,0,0,1-2.346,1.5c-1.016-.022-1.016.062-1.292,1.047a9.971,9.971,0,0,1-1.257,3.081,1.777,1.777,0,0,1-1.907.883,28.093,28.093,0,0,1-2.82-.67c-.823-.231-1.213,0-1.385.836-.272,1.322-.5,2.654-.793,3.969a71.911,71.911,0,0,1-1.942,7.256c-1.06,3.132-3.577,3.888-6.236,3.26a.671.671,0,0,0-.876.343,18.719,18.719,0,0,1-12.4,8.506,8.516,8.516,0,0,1-3.374.266,8.968,8.968,0,0,0-2.35.316c-5.908.393-10.951-1.294-14.775-6.006a22.118,22.118,0,0,1-2.564-3.847c-.38-.744-.616-.793-1.265-.268-.284.23-.543.495-.841.7a2.123,2.123,0,0,1-3.311-.627,12.416,12.416,0,0,1-1.6-4.048c-.693-2.727-1.008-5.524-1.546-8.28a10.287,10.287,0,0,0-.521-1.984,1.118,1.118,0,0,0-1.164-.8,3.232,3.232,0,0,1-3.374-2.364,11.031,11.031,0,0,1-.648-3.274,29.6,29.6,0,0,1,2.146-12.333,27.765,27.765,0,0,1,4.448-7.932,5.461,5.461,0,0,1,.825-.813c.635-.5,1.163-.355,1.485.376a3.853,3.853,0,0,1,.221,1.2c.658-.384,1.256-.745,1.866-1.085a13.313,13.313,0,0,1,3.785-1.581c.544-.11,1.2-.338,1.58.135.326.406-.081.937-.291,1.37-.894,1.849-1.882,3.657-2.7,5.539A20.285,20.285,0,0,0,187.845-73.4a18.766,18.766,0,0,0,3.317,8.271,15.95,15.95,0,0,0,3.963,3.852c.176.117.386.424.6.2.165-.177-.079-.428-.188-.621-.621-1.091-1.6-1.914-2.271-2.964-3.493-5.425-1.9-11.6,3.112-14.245,4.36-2.3,10.611-1.679,13.328,4.36a.785.785,0,0,0,.577.507,8.251,8.251,0,0,1,4.978,3.853,12.349,12.349,0,0,1,1.606,8.426.9.9,0,0,0-.025.256c.166,1.112.191,1.345,1.39,1.014a10.166,10.166,0,0,0,2.513-1.288,26.791,26.791,0,0,0,10.482-11.1,24.655,24.655,0,0,0,2.3-8.718c.247-2.621.236-5.246.251-7.873,0-.572-.05-1.271.537-1.558.614-.3,1.064.263,1.491.625a20.309,20.309,0,0,1,2.748,3.243c1.141,1.474,2.134,1.381,2.995-.29a18.373,18.373,0,0,0,1.3-3.823,2.894,2.894,0,0,1,1.029-1.921ZM183.517-84.15q0-1.582,0-3.165c0-.323.017-.646.009-.968-.008-.351-.046-.731-.421-.867-.355-.128-.618.163-.837.384a5.049,5.049,0,0,0-.884,1.266,45.578,45.578,0,0,0-4.127,11.23,19.533,19.533,0,0,0-.381,7.815c.385,2.07.787,2.953,3.255,2.823a1.112,1.112,0,0,1,1.189.8,7.89,7.89,0,0,1,.267.861c.558,2.258.812,4.572,1.275,6.847a23.071,23.071,0,0,0,2.1,6.68c1.014,1.839,1.857,1.92,3.3.383.684-.73,1.408-.676,1.851.2a22.373,22.373,0,0,0,3.994,5.366,14.858,14.858,0,0,0,6.1,4.061,18.564,18.564,0,0,0,7.031.734,3.648,3.648,0,0,0,.633-.122c.268-.066.489-.205.511-.507a.712.712,0,0,0-.346-.655,1.62,1.62,0,0,0-.654-.265c-.744-.117-1.489-.234-2.229-.372a10.022,10.022,0,0,1-3.073-.7c-.492-.267-.905-.614-.821-1.261.088-.675.574-.906,1.165-1.019a14.187,14.187,0,0,1,3.612-.036,5.107,5.107,0,0,0,2.486-.231.765.765,0,0,0,.5-.756.716.716,0,0,0-.527-.663,1.957,1.957,0,0,0-.56-.14c-1.286-.13-2.575-.244-3.862-.374a5.866,5.866,0,0,1-2.081-.4,1.214,1.214,0,0,1-.752-1.048,1.063,1.063,0,0,1,.587-1,1.842,1.842,0,0,1,.863-.24,26.274,26.274,0,0,1,3.233-.086,15.438,15.438,0,0,0,4.061-.2c.457-.1.944-.27.876-.9a.881.881,0,0,0-.951-.787c-.766-.022-1.525-.13-2.3-.1a20.035,20.035,0,0,1-3.553-.16,1.361,1.361,0,0,1-1.171-.885A1.3,1.3,0,0,1,203.153-54a1.8,1.8,0,0,1,1.072-.553,14.9,14.9,0,0,1,2.841-.138c4.8.019,8.512-4.513,8.847-8.423a10.393,10.393,0,0,0-2.9-7.819,7.459,7.459,0,0,0-5.349-2.511,11.467,11.467,0,0,0-6.981,1.4c-3.746,2.23-4.634,6.685-4,10.155a10.143,10.143,0,0,0,2.5,4.671c.22.26.516.585.343.91-.2.38-.617.154-.942.088a2.693,2.693,0,0,1-.555-.17,26.573,26.573,0,0,1-6.115-3.7,21.5,21.5,0,0,1-7.108-11.64A47.2,47.2,0,0,1,183.517-84.15ZM205.8-49.091c-.863,0-1.726,0-2.589,0a2.046,2.046,0,0,0-1.113.277.553.553,0,0,0,.024,1.019,1.779,1.779,0,0,0,.665.217q2.635.282,5.272.533a1.925,1.925,0,0,1,1.759,1.519c.043.654-.611,1.264-1.538,1.457a9.276,9.276,0,0,1-2.767-.079A20.057,20.057,0,0,0,202.8-44.2c-.405.018-.806.161-.86.624a.864.864,0,0,0,.672.908,3.321,3.321,0,0,0,.624.146c1.505.247,3.012.488,4.518.733a1.275,1.275,0,0,1,1.156,1.128c.092.677.512.825,1.07.837a4.531,4.531,0,0,0,1.092-.056,21.912,21.912,0,0,0,8.332-3.913,14.029,14.029,0,0,0,4.522-5.289c.641-1.367.984-1.546,2.391-1.021a2.873,2.873,0,0,0,3.132-.391,6.426,6.426,0,0,0,1.331-1.646,22.275,22.275,0,0,0,2.352-6.429c.416-1.773.745-3.566,1.16-5.34.221-.944.623-1.142,1.562-.9.665.169,1.324.367,1.992.526,1.99.474,2.951-.1,3.462-2.093a17.18,17.18,0,0,0,.461-6.018A36.2,36.2,0,0,0,237.974-85.4a19.609,19.609,0,0,0-1.615-2.854.91.91,0,0,0-1.047-.438c-.481.156-.38.569-.381.921a52.12,52.12,0,0,1-1.04,11.213,25.35,25.35,0,0,1-5.883,11.7,35.192,35.192,0,0,1-10.369,7.651,24.25,24.25,0,0,1-7.306,2.609c-1.687.263-3.386.335-5.084.444a2.272,2.272,0,0,0-1.384.445.8.8,0,0,0-.279.865.684.684,0,0,0,.672.5c.47.047.934.127,1.411.133,1.315.018,2.629.073,3.944.115a2.425,2.425,0,0,1,.7.1c.794.261,1.189.7,1.175,1.338a1.4,1.4,0,0,1-1.249,1.28A21.115,21.115,0,0,1,205.8-49.091Z" transform="translate(-175.574 93.193)" fill="#08090a"/>
      <path id="Path_608" data-name="Path 608" d="M184.357-80.967a47.2,47.2,0,0,0,1.29,12.419,21.5,21.5,0,0,0,7.108,11.64,26.573,26.573,0,0,0,6.115,3.7,2.691,2.691,0,0,0,.555.169c.326.066.74.292.942-.088.173-.325-.123-.65-.343-.91a10.143,10.143,0,0,1-2.5-4.671c-.637-3.47.25-7.925,4-10.155a11.467,11.467,0,0,1,6.981-1.4,7.459,7.459,0,0,1,5.349,2.511,10.394,10.394,0,0,1,2.9,7.819c-.336,3.909-4.045,8.442-8.847,8.423a14.9,14.9,0,0,0-2.841.138,1.8,1.8,0,0,0-1.072.553,1.3,1.3,0,0,0-.265,1.384,1.361,1.361,0,0,0,1.171.885,20.038,20.038,0,0,0,3.553.16c.771-.031,1.531.078,2.3.1a.881.881,0,0,1,.951.787c.069.626-.419.8-.876.9a15.439,15.439,0,0,1-4.061.2,26.275,26.275,0,0,0-3.233.086,1.842,1.842,0,0,0-.863.24,1.063,1.063,0,0,0-.587,1,1.214,1.214,0,0,0,.752,1.048,5.866,5.866,0,0,0,2.081.4c1.287.13,2.575.244,3.862.374a1.96,1.96,0,0,1,.56.14.716.716,0,0,1,.527.663.765.765,0,0,1-.5.756,5.107,5.107,0,0,1-2.486.231,14.188,14.188,0,0,0-3.612.036c-.591.113-1.077.343-1.165,1.019-.084.647.33.995.821,1.261a10.022,10.022,0,0,0,3.073.7c.74.139,1.485.256,2.229.372a1.619,1.619,0,0,1,.654.265.712.712,0,0,1,.346.655c-.022.3-.243.441-.511.507a3.647,3.647,0,0,1-.633.122,18.563,18.563,0,0,1-7.031-.734,14.858,14.858,0,0,1-6.1-4.061,22.372,22.372,0,0,1-3.994-5.366c-.443-.873-1.168-.927-1.851-.2-1.441,1.537-2.284,1.456-3.3-.383a23.069,23.069,0,0,1-2.1-6.68c-.463-2.275-.717-4.59-1.275-6.847a7.891,7.891,0,0,0-.267-.861,1.112,1.112,0,0,0-1.189-.8c-2.468.13-2.869-.753-3.254-2.823a19.532,19.532,0,0,1,.381-7.815,45.575,45.575,0,0,1,4.127-11.23,5.048,5.048,0,0,1,.884-1.266c.22-.22.482-.512.837-.384.375.136.413.516.421.867.008.322-.009.646-.009.969Q184.356-82.549,184.357-80.967Z" transform="translate(-176.414 90.01)" fill="#6ea61f"/>
    </g>
  </g>
</svg>
