<svg xmlns="http://www.w3.org/2000/svg" width="30.643" height="30.633" viewBox="0 0 30.643 30.633">
  <path id="instagram-filled" d="M18.515,15.672a3.02,3.02,0,1,0-3.02,3.007A3.017,3.017,0,0,0,18.515,15.672ZM23,.022H7.674A7.65,7.65,0,0,0,.016,7.646V9.771H11.285a7.274,7.274,0,0,1,8.419,0H30.658V7.646A7.649,7.649,0,0,0,23,.022Zm3.1,7.252a.851.851,0,0,1-.851.847H22.622a.852.852,0,0,1-.851-.847V4.656a.851.851,0,0,1,.851-.847h2.629a.852.852,0,0,1,.851.847Zm-3.334,8.4a7.274,7.274,0,0,1-14.548,0A7.173,7.173,0,0,1,8.911,12.6H.016V23.031a7.649,7.649,0,0,0,7.658,7.624H23a7.65,7.65,0,0,0,7.658-7.624V12.594H22.077a7.175,7.175,0,0,1,.691,3.076Z" transform="translate(-0.016 -0.022)" fill="#08090a"/>
</svg>
