<svg xmlns="http://www.w3.org/2000/svg" width="208.576" height="202.228" viewBox="0 0 208.576 202.228">
  <g id="Group_136" data-name="Group 136" transform="translate(-146.1 -285.018)">
    <g id="Group_135" data-name="Group 135" transform="translate(631.538 324.902)">
      <path id="Path_609" data-name="Path 609" d="M-470.478,76.287s2.852-2.5,0-8.559-2.139-18.189-2.139-18.189-6.935-6.063-.081-10.7,6.5-6.42,13.274-4.993,5.706-6.776,0-10.341-19.613-4.28-19.613-6.063,2.852-2.139,4.992-6.063S-466.2-1.813-458.354-.387s9.274,8.2,12.483,8.2,10.7-4.993,14.978-10.343,6.776-10.7,2.5-15.333-12.837-11.769-9.628-13.2,10.148,1.426,11.85,0,2.059-4.39,7.409-.412c0,0,.713.236,4.278-1.994s3.477-5.352,11.769-5.352,14.443-1.07,23,4.28,8.024,5.082,10.163,1.6,7.756-.266,9.362,1.873,15.78,21.129,20.326,21.664,6.688-1.07,8.024,1.6-5.883,7.489-2.139,9.9,6.686,5.885,11.235,6.686,6.952,3.211,5.082,6.153-8.559,6.954-6.153,12.3,5.618,6.42,4.012,10.966-13.106,12.839-12.3,18.189,3.477,4.547,8.024-.268c0,0,3.953-1.338,7.058.8s6.316,4.012,11.4-.268,7.756-8.29,14.175-8.024,4.012,8.292,4.547,9.628,2.408,6.153,7.489,3.211c0,0,3.477,1.873,0,6.42s-6.151,11.233-14.978,12.036-9.628,4.813-14.175,5.082-11.235-4.815-15.247-5.35-10.7,3.746-9.628,7.489,5.885,4.012,5.082,8.559-2.942,10.432-9.628,11.235-13.909.266-15.513,8.29-12.571,27.014-12.571,33.167-1.338,7.756-4.28,7.756a46.85,46.85,0,0,0-14.443,2.139c-5.348,1.873-13.105,6.42-17.652-1.336s-8.29-14.978-5.885-18.455,4.012-9.362,2.942-12.3-3.209-6.42-.8-8.559c0,0-2.141-2.139-6.42,2.674s-3.211,13.642-6.686,13.374-9.9-5.082-12.839-1.07-1.6,11.769-5.616,11.5-9.362-4.547-12.571-11.5-1.072-6.42-7.223-7.221-9.9-8.024-10.163-8.827-8.559-1.338-8.559-3.746-2.942-10.964-5.35-13.907-4.28-6.153-1.6-10.165S-477.523,74.5-470.478,76.287Z" fill="none" stroke="#fff" stroke-miterlimit="10" stroke-width="2"/>
      <path id="Path_610" data-name="Path 610" d="M-477.2,36.933s3.209,4.1,7.489,1.783,7.311-7.846,14.622-5.172,10.52,4.459,14.443,3.389,5.7-2.5,10.163-.805,7.667-.092,10.7,0,8.915,1.336,8.38-3.3-2.139-10.161,3.211-11.944,8.024-7.311,8.024-7.311,5.172,3.031,9.807,1.6,12.126-5.885,16.939-1.6,5.885,7.846,12.3,6.954,14.8-8.917,17.652-13.017,4.637-5.172,9.272,0" transform="translate(6.725 39.354)" fill="none" stroke="#fff" stroke-miterlimit="10" stroke-width="2"/>
      <path id="Path_611" data-name="Path 611" d="M-443.407,20.573c1.344,1.095,2.682-1.313,2.948,5.375s1.338,8.29,2.942,11.233,2.139,8.559-1.07,10.432-4.56,0-4.821,7.757l-.261,7.756" transform="translate(37.471 54.529)" fill="none" stroke="#fff" stroke-miterlimit="10" stroke-width="2"/>
    </g>
  </g>
</svg>
